# xmcd CD database file generated by Grip 2.96
# 
# Track frame offsets:
#       150
#       9100
#       18681
#       32777
#       36220
#       52221
#       57040
#       77953
#       92729
#       109425
#       112919
#       124287
#       140313
#       145275
#       152906
#       171096
#       188233
#       190927
#       207973
#       218358
# 
# Disc length: 3043 seconds
# 
# Revision: 0
# Processed by: cddbd v1.4PL0 Copyright (c) Steve Scherf et al.
# Submitted via: Grip 2.96
# 
DISCID=1b0be114
DTITLE=Pine State - Pine State's Mellow Madness
DYEAR=1900
DGENRE=
TTITLE0=Hatchetsaw Hayride 1
TTITLE1=Texas Valentine
TTITLE2=100th Broken Heart
TTITLE3=Hatchetsaw Hayride 2
TTITLE4=Pick Me Up (Gimp Mix)
TTITLE5=Hatchetsaw Hayride 3
TTITLE6=Heart On The Line
TTITLE7=I'm Just Here To Get My Baby Out Of Jail
TTITLE8=If The River Was Whiskey
TTITLE9=Hetchetsaw Hayride 4
TTITLE10=Live Fast, Love Hard , Die Young
TTITLE11=Pick Me Up
TTITLE12=Hatchetsaw Hayride 5
TTITLE13=Pretty Fuck Look
TTITLE14=Steel Guitar Rag
TTITLE15=Broadminded
TTITLE16=Hatchetsaw Hayride 6
TTITLE17=Bird Dog Blues (live)
TTITLE18=Heroin
TTITLE19=Roll On, Big Mama
EXTD=
EXTT0=
EXTT1=
EXTT2=
EXTT3=
EXTT4=
EXTT5=
EXTT6=
EXTT7=
EXTT8=
EXTT9=
EXTT10=
EXTT11=
EXTT12=
EXTT13=
EXTT14=
EXTT15=
EXTT16=
EXTT17=
EXTT18=
EXTT19=
PLAYORDER=
